<?xml version="1.0" encoding="utf-8"?>
<!-- Generator: Adobe Illustrator 27.6.1, SVG Export Plug-In . SVG Version: 6.00 Build 0)  -->
<svg version="1.1" id="Capa_1" xmlns="http://www.w3.org/2000/svg" xmlns:xlink="http://www.w3.org/1999/xlink" x="0px" y="0px"
	 viewBox="0 0 644 405" style="enable-background:new 0 0 644 405;" xml:space="preserve">
<style type="text/css">
	.st0{fill:#8C734B;}
</style>
<path class="st0" d="M139.2,44.3c1.1-0.6,1.9-1.7,2-2.9c0.2-1.2,0-2.4-0.7-3.4l-11.3-16c-0.8-1.2-2.2-1.9-3.6-1.9
	c-0.8,0-1.6,0.2-2.4,0.6C111.3,28,94.3,32.1,76.9,32.1c-17.5,0-34.5-4.2-46.5-11.4c-0.7-0.4-1.5-0.6-2.3-0.6c-1.4,0-2.8,0.6-3.6,1.9
	L13.2,38c-0.7,1-1,2.2-0.7,3.5c0.2,1.2,1,2.2,2,2.8c16.8,10.5,38.9,16.3,62.4,16.3C100.2,60.5,122.4,54.8,139.2,44.3L139.2,44.3z"/>
<path class="st0" d="M428.1,67.3c39.8-3.5,77.4-6.8,113.8-6.8c35,0,59.5,15.3,62.9,30.2c0.5,2,2.3,3.4,4.4,3.4h19.8
	c1.2,0,2.4-0.5,3.2-1.5c0.9-0.9,1.2-2.1,1.1-3.4c-3.6-32.6-42.9-57.2-91.4-57.2c-37.6,0-75.8,3.3-116.2,6.9
	c-41.1,3.6-83.6,7.3-126,7.3c-44.5,0-83.6-4.1-119.4-12.7c-0.4-0.2-0.7-0.2-1.1-0.2c-2,0-3.8,1.3-4.3,3.3l-4.7,18.9
	c-0.3,1.1-0.1,2.4,0.5,3.4c0.6,1,1.6,1.7,2.7,1.9c38.2,9.1,79.4,13.5,126,13.5C343,74.7,386.3,70.9,428.1,67.3L428.1,67.3z"/>
<path class="st0" d="M107.1,230.1h-0.2c-1.2,0-2.3,0.4-3.1,1.2l-14.3,13.2c-1.7,1.6-1.9,4.3-0.4,6.1c21.8,25.7,34.8,66,35.6,110.5
	c0.1,2.4,2.1,4.3,4.4,4.3h19.6c1.1,0,2.3-0.5,3.1-1.3c0.8-0.9,1.3-2,1.3-3.2c-0.9-51.5-16.5-98.6-42.9-129.3
	C109.4,230.7,108.2,230.2,107.1,230.1L107.1,230.1z"/>
<path class="st0" d="M633.5,134.5c0-2.4-1.9-4.4-4.5-4.4h-19.4c-1.3,0-2.4,0.5-3.2,1.3c-0.8,0.9-1.3,2-1.3,3.2v9.2
	c-0.2,35.9-9.7,69.9-26,93.5l-1.2,1.6c-22.4,30.8-35.8,75.3-36.5,122.1c-0.2,1.1,0.4,2.3,1.2,3.2c0.8,0.8,2,1.3,3.2,1.3h19.6
	c2.3,0,4.3-1.9,4.3-4.3c0.7-39.3,11.4-76.8,29.2-102.8l2-2.8c20.7-28.7,32.6-70.1,32.6-113.5L633.5,134.5L633.5,134.5z"/>
<path class="st0" d="M496,299.4c-0.7-0.3-1.4-0.5-2.2-0.5c-0.5,0-0.8,0-1.2,0.1l-18.8,5.3c-2.3,0.6-3.7,3-3,5.3
	c4.1,16.3,6.4,33.6,6.8,51.5c0,2.4,2,4.3,4.4,4.3h19.5c1.2,0,2.4-0.5,3.2-1.3c0.8-0.9,1.3-2,1.2-3.2c-0.3-20.3-2.9-40.1-7.7-58.8
	C497.8,301.1,497.1,300.1,496,299.4L496,299.4z"/>
<path class="st0" d="M137.6,136.9c0.3-1.2,0-2.4-0.6-3.4c-0.7-1-1.8-1.7-2.9-1.8l-19.3-3.1c-0.3,0-0.5,0-0.7,0c-2,0-3.9,1.5-4.3,3.5
	c-5.1,25.2-19,43.6-33,43.7c-10-0.1-16.4-3.8-17.6-5.9v-0.1c-0.1-29-4.4-58-12.6-83.9c-0.3-1.1-1.1-2.1-2.2-2.6
	c-0.6-0.3-1.3-0.5-1.9-0.5c-0.5,0-1,0-1.4,0.2l-18.4,6.2c-2.3,0.8-3.6,3.2-2.9,5.5c7.3,23.1,11.1,49.2,11.1,75.3
	c0,19,20.1,33.9,45.9,33.9h0.2C105.4,204,129.8,176.9,137.6,136.9L137.6,136.9z"/>
<path class="st0" d="M486.6,265.7c0.5-1.1,0.5-2.3,0.1-3.5l-7.6-18c-0.7-1.7-2.3-2.7-4.1-2.7c-0.5,0-1,0.1-1.6,0.4
	c-23.1,9-49.9,13.7-77.4,13.7H263.7c-41.1,0-73.4,48.3-73.4,110V385c0,2.5,2,4.4,4.4,4.4h19.5c2.4,0,4.4-2,4.4-4.4v-19.5
	c0-43.5,21-81.6,45-81.6H396c31.2,0,61.7-5.5,88.1-15.9C485.3,267.6,486.1,266.8,486.6,265.7L486.6,265.7z"/>
</svg>
